<svg xmlns="http://www.w3.org/2000/svg" width="1000" height="600" viewBox="0 0 1000 600">
<rect width="100%" height="100%" fill="#FFFFFF"/>
<text x="500.0" y="34.0" font-family="Arial, sans-serif" font-size="20" text-anchor="middle" font-weight="bold" fill="#222222">End-to-end response decomposition: 300 ms group</text>
<line x1="92" y1="518.0" x2="965" y2="518.0" stroke="#D9D9D9" stroke-width="1"/>
<text x="82.0" y="523.0" font-family="Arial, sans-serif" font-size="12" text-anchor="end" font-weight="normal" fill="#555555">0</text>
<line x1="92" y1="428.8" x2="965" y2="428.8" stroke="#D9D9D9" stroke-width="1"/>
<text x="82.0" y="433.8" font-family="Arial, sans-serif" font-size="12" text-anchor="end" font-weight="normal" fill="#555555">180</text>
<line x1="92" y1="339.6" x2="965" y2="339.6" stroke="#D9D9D9" stroke-width="1"/>
<text x="82.0" y="344.6" font-family="Arial, sans-serif" font-size="12" text-anchor="end" font-weight="normal" fill="#555555">360</text>
<line x1="92" y1="250.4" x2="965" y2="250.4" stroke="#D9D9D9" stroke-width="1"/>
<text x="82.0" y="255.4" font-family="Arial, sans-serif" font-size="12" text-anchor="end" font-weight="normal" fill="#555555">540</text>
<line x1="92" y1="161.2" x2="965" y2="161.2" stroke="#D9D9D9" stroke-width="1"/>
<text x="82.0" y="166.2" font-family="Arial, sans-serif" font-size="12" text-anchor="end" font-weight="normal" fill="#555555">720</text>
<line x1="92" y1="72.0" x2="965" y2="72.0" stroke="#D9D9D9" stroke-width="1"/>
<text x="82.0" y="77.0" font-family="Arial, sans-serif" font-size="12" text-anchor="end" font-weight="normal" fill="#555555">900</text>
<line x1="92" y1="72" x2="92" y2="518" stroke="#333333" stroke-width="1.4"/>
<line x1="92" y1="518" x2="965" y2="518" stroke="#333333" stroke-width="1.4"/>
<text x="24" y="295.0" transform="rotate(-90 24 295.0)" font-family="Arial, sans-serif" font-size="14" text-anchor="middle" fill="#222222">Latency (ms)</text>
<rect x="129.8" y="373.0" width="69.8" height="145.0" fill="#4472C4"/>
<rect x="129.8" y="354.3" width="69.8" height="18.7" fill="#EDB120"/>
<rect x="129.8" y="195.8" width="69.8" height="158.5" fill="#70AD47"/>
<text x="164.8" y="186.8" font-family="Arial, sans-serif" font-size="12" text-anchor="middle" font-weight="bold" fill="#222222">650</text>
<text x="164.8" y="541.0" font-family="Arial, sans-serif" font-size="13" text-anchor="middle" font-weight="normal" fill="#222222">2007</text>
<rect x="275.3" y="388.8" width="69.8" height="129.2" fill="#4472C4"/>
<rect x="275.3" y="375.9" width="69.8" height="12.9" fill="#EDB120"/>
<rect x="275.3" y="375.9" width="69.8" height="0.0" fill="#70AD47"/>
<text x="310.2" y="366.9" font-family="Arial, sans-serif" font-size="12" text-anchor="middle" font-weight="bold" fill="#222222">N/A</text>
<text x="310.2" y="541.0" font-family="Arial, sans-serif" font-size="13" text-anchor="middle" font-weight="normal" fill="#222222">2012</text>
<rect x="420.8" y="398.0" width="69.8" height="120.0" fill="#4472C4"/>
<rect x="420.8" y="384.6" width="69.8" height="13.5" fill="#EDB120"/>
<rect x="420.8" y="199.9" width="69.8" height="184.6" fill="#70AD47"/>
<text x="455.8" y="190.9" font-family="Arial, sans-serif" font-size="12" text-anchor="middle" font-weight="bold" fill="#222222">642</text>
<text x="455.8" y="541.0" font-family="Arial, sans-serif" font-size="13" text-anchor="middle" font-weight="normal" fill="#222222">2017</text>
<rect x="566.3" y="400.1" width="69.8" height="117.9" fill="#4472C4"/>
<rect x="566.3" y="377.1" width="69.8" height="22.9" fill="#EDB120"/>
<rect x="566.3" y="189.1" width="69.8" height="188.1" fill="#70AD47"/>
<text x="601.2" y="180.1" font-family="Arial, sans-serif" font-size="12" text-anchor="middle" font-weight="bold" fill="#222222">664</text>
<text x="601.2" y="541.0" font-family="Arial, sans-serif" font-size="13" text-anchor="middle" font-weight="normal" fill="#222222">2021</text>
<rect x="711.8" y="382.7" width="69.8" height="135.3" fill="#4472C4"/>
<rect x="711.8" y="368.7" width="69.8" height="13.9" fill="#EDB120"/>
<rect x="711.8" y="179.9" width="69.8" height="188.8" fill="#70AD47"/>
<text x="746.8" y="170.9" font-family="Arial, sans-serif" font-size="12" text-anchor="middle" font-weight="bold" fill="#222222">682</text>
<text x="746.8" y="541.0" font-family="Arial, sans-serif" font-size="13" text-anchor="middle" font-weight="normal" fill="#222222">2026</text>
<rect x="857.3" y="400.7" width="69.8" height="117.3" fill="#4472C4"/>
<rect x="857.3" y="386.1" width="69.8" height="14.6" fill="#EDB120"/>
<rect x="857.3" y="192.7" width="69.8" height="193.4" fill="#70AD47"/>
<text x="892.2" y="183.7" font-family="Arial, sans-serif" font-size="12" text-anchor="middle" font-weight="bold" fill="#222222">656</text>
<text x="892.2" y="541.0" font-family="Arial, sans-serif" font-size="13" text-anchor="middle" font-weight="normal" fill="#222222">2029</text>
<line x1="92" y1="347.7" x2="965" y2="347.7" stroke="#555555" stroke-width="2" stroke-dasharray="8,6"/>
<rect x="127" y="569" width="18" height="12" fill="#4472C4"/>
<text x="153.0" y="580.0" font-family="Arial, sans-serif" font-size="12" text-anchor="start" font-weight="normal" fill="#222222">t1 to Fusion</text>
<rect x="352" y="569" width="18" height="12" fill="#EDB120"/>
<text x="378.0" y="580.0" font-family="Arial, sans-serif" font-size="12" text-anchor="start" font-weight="normal" fill="#222222">Fusion to Control</text>
<rect x="577" y="569" width="18" height="12" fill="#70AD47"/>
<text x="603.0" y="580.0" font-family="Arial, sans-serif" font-size="12" text-anchor="start" font-weight="normal" fill="#222222">Control to deceleration</text>
<line x1="812" y1="575" x2="842" y2="575" stroke="#555555" stroke-width="2" stroke-dasharray="7,5"/>
<text x="850.0" y="580.0" font-family="Arial, sans-serif" font-size="12" text-anchor="start" font-weight="normal" fill="#222222">Baseline mean</text>
</svg>